# Blender v2.92.0 OBJ File: 'sword.blend'
# www.blender.org
mtllib sword.mtl
o Cube
v 1.000000 -0.326644 -1.000000
v 1.000000 -1.000000 -1.000000
v 1.000000 -0.326644 1.000000
v 1.000000 -1.000000 1.000000
v -1.000000 -0.326644 -1.000000
v -1.000000 -1.000000 -1.000000
v -1.000000 -0.326644 1.000000
v -1.000000 -1.000000 1.000000
v 0.784682 -0.096187 -0.784682
v -0.784682 -0.096187 -0.784682
v -0.784682 -0.096187 0.784682
v 0.784682 -0.096187 0.784682
v 0.000000 -0.106483 -0.312596
v 0.000000 3.798185 -0.312596
v 0.126602 -0.106483 -0.306589
v 0.126602 3.798185 -0.306589
v 0.248339 -0.106483 -0.288801
v 0.248339 3.798185 -0.288801
v 0.360532 -0.106483 -0.259914
v 0.360532 3.798185 -0.259914
v 0.458871 -0.106483 -0.221039
v 0.458871 3.798185 -0.221039
v 0.539575 -0.106483 -0.173669
v 0.539575 3.798185 -0.173669
v 0.599544 -0.106483 -0.119625
v 0.599544 3.798185 -0.119625
v 0.636472 -0.106483 -0.060985
v 0.636472 3.798185 -0.060985
v 0.648941 -0.106483 -0.000000
v 0.648941 3.798185 -0.000000
v 0.636472 -0.106483 0.060984
v 0.636472 3.798185 0.060984
v 0.599544 -0.106483 0.119625
v 0.599544 3.798185 0.119625
v 0.539575 -0.106483 0.173669
v 0.539575 3.798185 0.173669
v 0.458871 -0.106483 0.221038
v 0.458871 3.798185 0.221038
v 0.360532 -0.106483 0.259914
v 0.360532 3.798185 0.259914
v 0.248339 -0.106483 0.288801
v 0.248339 3.798185 0.288801
v 0.126602 -0.106483 0.306589
v 0.126602 3.798185 0.306589
v -0.000000 -0.106483 0.312596
v -0.000000 3.798185 0.312596
v -0.126602 -0.106483 0.306589
v -0.126602 3.798185 0.306589
v -0.248339 -0.106483 0.288801
v -0.248339 3.798185 0.288801
v -0.360533 -0.106483 0.259914
v -0.360533 3.798185 0.259914
v -0.458871 -0.106483 0.221038
v -0.458871 3.798185 0.221038
v -0.539575 -0.106483 0.173668
v -0.539575 3.798185 0.173668
v -0.599544 -0.106483 0.119625
v -0.599544 3.798185 0.119625
v -0.636472 -0.106483 0.060984
v -0.636472 3.798185 0.060984
v -0.648941 -0.106483 -0.000001
v -0.648941 3.798185 -0.000001
v -0.636472 -0.106483 -0.060985
v -0.636472 3.798185 -0.060985
v -0.599543 -0.106483 -0.119626
v -0.599543 3.798185 -0.119626
v -0.539574 -0.106483 -0.173669
v -0.539574 3.798185 -0.173669
v -0.458870 -0.106483 -0.221039
v -0.458870 3.798185 -0.221039
v -0.360532 -0.106483 -0.259914
v -0.360532 3.798185 -0.259914
v -0.248338 -0.106483 -0.288801
v -0.248338 3.798185 -0.288801
v -0.126601 -0.106483 -0.306590
v -0.126601 3.798185 -0.306590
vt 0.651915 0.526915
vt 0.848085 0.526915
vt 0.848085 0.723085
vt 0.651915 0.723085
vt 0.375000 0.750000
vt 0.625000 0.750000
vt 0.625000 1.000000
vt 0.375000 1.000000
vt 0.375000 0.000000
vt 0.625000 0.000000
vt 0.625000 0.250000
vt 0.375000 0.250000
vt 0.125000 0.500000
vt 0.375000 0.500000
vt 0.125000 0.750000
vt 0.625000 0.500000
vt 0.875000 0.500000
vt 0.875000 0.750000
vt 1.000000 0.500000
vt 1.000000 1.000000
vt 0.968750 1.000000
vt 0.968750 0.500000
vt 0.937500 1.000000
vt 0.937500 0.500000
vt 0.906250 1.000000
vt 0.906250 0.500000
vt 0.875000 1.000000
vt 0.875000 0.500000
vt 0.843750 1.000000
vt 0.843750 0.500000
vt 0.812500 1.000000
vt 0.812500 0.500000
vt 0.781250 1.000000
vt 0.781250 0.500000
vt 0.750000 1.000000
vt 0.750000 0.500000
vt 0.718750 1.000000
vt 0.718750 0.500000
vt 0.687500 1.000000
vt 0.687500 0.500000
vt 0.656250 1.000000
vt 0.656250 0.500000
vt 0.625000 1.000000
vt 0.625000 0.500000
vt 0.593750 1.000000
vt 0.593750 0.500000
vt 0.562500 1.000000
vt 0.562500 0.500000
vt 0.531250 1.000000
vt 0.531250 0.500000
vt 0.500000 1.000000
vt 0.500000 0.500000
vt 0.468750 1.000000
vt 0.468750 0.500000
vt 0.437500 1.000000
vt 0.437500 0.500000
vt 0.406250 1.000000
vt 0.406250 0.500000
vt 0.375000 1.000000
vt 0.375000 0.500000
vt 0.343750 1.000000
vt 0.343750 0.500000
vt 0.312500 1.000000
vt 0.312500 0.500000
vt 0.281250 1.000000
vt 0.281250 0.500000
vt 0.250000 1.000000
vt 0.250000 0.500000
vt 0.218750 1.000000
vt 0.218750 0.500000
vt 0.187500 1.000000
vt 0.187500 0.500000
vt 0.156250 1.000000
vt 0.156250 0.500000
vt 0.125000 1.000000
vt 0.125000 0.500000
vt 0.093750 1.000000
vt 0.093750 0.500000
vt 0.062500 1.000000
vt 0.062500 0.500000
vt 0.296822 0.485388
vt 0.250000 0.490000
vt 0.203179 0.485389
vt 0.158156 0.471731
vt 0.116663 0.449553
vt 0.080295 0.419706
vt 0.050447 0.383337
vt 0.028269 0.341844
vt 0.014612 0.296822
vt 0.010000 0.250000
vt 0.014611 0.203179
vt 0.028269 0.158156
vt 0.050447 0.116663
vt 0.080294 0.080294
vt 0.116663 0.050447
vt 0.158156 0.028269
vt 0.203178 0.014612
vt 0.250000 0.010000
vt 0.296822 0.014612
vt 0.341844 0.028269
vt 0.383337 0.050447
vt 0.419706 0.080294
vt 0.449553 0.116663
vt 0.471731 0.158156
vt 0.485388 0.203178
vt 0.490000 0.250000
vt 0.485388 0.296822
vt 0.471731 0.341844
vt 0.449553 0.383337
vt 0.419706 0.419706
vt 0.383337 0.449553
vt 0.341844 0.471731
vt 0.031250 1.000000
vt 0.031250 0.500000
vt 0.000000 1.000000
vt 0.000000 0.500000
vt 0.750000 0.490000
vt 0.796822 0.485388
vt 0.841844 0.471731
vt 0.883337 0.449553
vt 0.919706 0.419706
vt 0.949553 0.383337
vt 0.971731 0.341844
vt 0.985388 0.296822
vt 0.990000 0.250000
vt 0.985388 0.203178
vt 0.971731 0.158156
vt 0.949553 0.116663
vt 0.919706 0.080294
vt 0.883337 0.050447
vt 0.841844 0.028269
vt 0.796822 0.014612
vt 0.750000 0.010000
vt 0.703178 0.014612
vt 0.658156 0.028269
vt 0.616663 0.050447
vt 0.580294 0.080294
vt 0.550447 0.116663
vt 0.528269 0.158156
vt 0.514611 0.203179
vt 0.510000 0.250000
vt 0.514612 0.296822
vt 0.528269 0.341844
vt 0.550447 0.383337
vt 0.580295 0.419706
vt 0.616663 0.449553
vt 0.658156 0.471731
vt 0.703179 0.485389
vn 0.0000 1.0000 0.0000
vn 0.0000 0.0000 1.0000
vn -1.0000 0.0000 0.0000
vn 0.0000 -1.0000 0.0000
vn 1.0000 0.0000 0.0000
vn 0.0000 0.0000 -1.0000
vn 0.0000 0.6827 -0.7307
vn -0.7307 0.6827 0.0000
vn 0.0000 0.6827 0.7307
vn 0.7307 0.6827 0.0000
vn 0.0474 0.0000 -0.9989
vn 0.1446 0.0000 -0.9895
vn 0.2493 0.0000 -0.9684
vn 0.3676 0.0000 -0.9300
vn 0.5062 0.0000 -0.8624
vn 0.6695 0.0000 -0.7429
vn 0.8462 0.0000 -0.5329
vn 0.9797 0.0000 -0.2003
vn 0.9797 0.0000 0.2003
vn 0.8462 0.0000 0.5329
vn 0.6695 0.0000 0.7429
vn 0.5062 0.0000 0.8624
vn 0.3676 0.0000 0.9300
vn 0.2493 0.0000 0.9684
vn 0.1446 0.0000 0.9895
vn 0.0474 0.0000 0.9989
vn -0.0474 0.0000 0.9989
vn -0.1446 0.0000 0.9895
vn -0.2493 0.0000 0.9684
vn -0.3676 0.0000 0.9300
vn -0.5062 0.0000 0.8624
vn -0.6695 0.0000 0.7429
vn -0.8462 0.0000 0.5329
vn -0.9797 0.0000 0.2003
vn -0.9797 0.0000 -0.2003
vn -0.8462 0.0000 -0.5329
vn -0.6695 0.0000 -0.7429
vn -0.5062 0.0000 -0.8624
vn -0.3676 0.0000 -0.9300
vn -0.2493 0.0000 -0.9684
vn -0.1446 0.0000 -0.9895
vn -0.0474 0.0000 -0.9989
usemtl Material
s off
f 9/1/1 10/2/1 11/3/1 12/4/1
f 4/5/2 3/6/2 7/7/2 8/8/2
f 8/9/3 7/10/3 5/11/3 6/12/3
f 6/13/4 2/14/4 4/5/4 8/15/4
f 2/14/5 1/16/5 3/6/5 4/5/5
f 6/12/6 5/11/6 1/16/6 2/14/6
f 1/16/7 5/17/7 10/2/7 9/1/7
f 5/17/8 7/18/8 11/3/8 10/2/8
f 7/18/9 3/6/9 12/4/9 11/3/9
f 3/6/10 1/16/10 9/1/10 12/4/10
f 13/19/11 14/20/11 16/21/11 15/22/11
f 15/22/12 16/21/12 18/23/12 17/24/12
f 17/24/13 18/23/13 20/25/13 19/26/13
f 19/26/14 20/25/14 22/27/14 21/28/14
f 21/28/15 22/27/15 24/29/15 23/30/15
f 23/30/16 24/29/16 26/31/16 25/32/16
f 25/32/17 26/31/17 28/33/17 27/34/17
f 27/34/18 28/33/18 30/35/18 29/36/18
f 29/36/19 30/35/19 32/37/19 31/38/19
f 31/38/20 32/37/20 34/39/20 33/40/20
f 33/40/21 34/39/21 36/41/21 35/42/21
f 35/42/22 36/41/22 38/43/22 37/44/22
f 37/44/23 38/43/23 40/45/23 39/46/23
f 39/46/24 40/45/24 42/47/24 41/48/24
f 41/48/25 42/47/25 44/49/25 43/50/25
f 43/50/26 44/49/26 46/51/26 45/52/26
f 45/52/27 46/51/27 48/53/27 47/54/27
f 47/54/28 48/53/28 50/55/28 49/56/28
f 49/56/29 50/55/29 52/57/29 51/58/29
f 51/58/30 52/57/30 54/59/30 53/60/30
f 53/60/31 54/59/31 56/61/31 55/62/31
f 55/62/32 56/61/32 58/63/32 57/64/32
f 57/64/33 58/63/33 60/65/33 59/66/33
f 59/66/34 60/65/34 62/67/34 61/68/34
f 61/68/35 62/67/35 64/69/35 63/70/35
f 63/70/36 64/69/36 66/71/36 65/72/36
f 65/72/37 66/71/37 68/73/37 67/74/37
f 67/74/38 68/73/38 70/75/38 69/76/38
f 69/76/39 70/75/39 72/77/39 71/78/39
f 71/78/40 72/77/40 74/79/40 73/80/40
f 16/81/1 14/82/1 76/83/1 74/84/1 72/85/1 70/86/1 68/87/1 66/88/1 64/89/1 62/90/1 60/91/1 58/92/1 56/93/1 54/94/1 52/95/1 50/96/1 48/97/1 46/98/1 44/99/1 42/100/1 40/101/1 38/102/1 36/103/1 34/104/1 32/105/1 30/106/1 28/107/1 26/108/1 24/109/1 22/110/1 20/111/1 18/112/1
f 73/80/41 74/79/41 76/113/41 75/114/41
f 75/114/42 76/113/42 14/115/42 13/116/42
f 13/117/4 15/118/4 17/119/4 19/120/4 21/121/4 23/122/4 25/123/4 27/124/4 29/125/4 31/126/4 33/127/4 35/128/4 37/129/4 39/130/4 41/131/4 43/132/4 45/133/4 47/134/4 49/135/4 51/136/4 53/137/4 55/138/4 57/139/4 59/140/4 61/141/4 63/142/4 65/143/4 67/144/4 69/145/4 71/146/4 73/147/4 75/148/4
o Cube.001
v -4.220662 3.388314 1.000000
v -4.227139 5.388314 1.000000
v -4.220662 3.388314 -1.000000
v -4.227139 5.388314 -1.000000
v 4.206789 3.343462 0.788940
v 4.213144 5.343462 0.788940
v 4.206789 3.343462 -1.211060
v 4.213144 5.343462 -1.211060
v 0.000000 3.823201 -1.000000
v 0.000000 5.823201 -1.000000
v 0.000000 3.823201 1.000000
v 0.000000 5.823201 1.000000
vt 0.375000 0.000000
vt 0.625000 0.000000
vt 0.625000 0.250000
vt 0.375000 0.250000
vt 0.375000 0.375000
vt 0.625000 0.375000
vt 0.625000 0.500000
vt 0.407612 0.499962
vt 0.625000 0.750000
vt 0.407612 0.750038
vt 0.375000 0.875000
vt 0.625000 0.875000
vt 0.625000 1.000000
vt 0.375000 1.000000
vt 0.250000 0.500000
vt 0.250000 0.750000
vt 0.750000 0.500000
vt 0.875000 0.500000
vt 0.875000 0.750000
vt 0.750000 0.750000
vt 0.125000 0.500000
vt 0.125000 0.750000
vn -1.0000 -0.0032 0.0000
vn -0.0501 0.0001 -0.9987
vn 1.0000 -0.0032 0.0000
vn 0.0000 0.0000 1.0000
vn -0.1133 -0.9936 0.0000
vn -0.1023 0.9947 0.0000
vn 0.1131 0.9936 0.0000
vn 0.1025 -0.9947 0.0000
vn 0.0501 -0.0001 0.9987
vn 0.0000 0.0000 -1.0000
usemtl Material.001
s off
f 77/149/43 78/150/43 80/151/43 79/152/43
f 85/153/44 86/154/44 84/155/44 83/156/44
f 83/156/45 84/155/45 82/157/45 81/158/45
f 87/159/46 88/160/46 78/161/46 77/162/46
f 85/163/47 83/156/47 81/158/47 87/164/47
f 86/165/48 80/166/48 78/167/48 88/168/48
f 84/155/49 86/165/49 88/168/49 82/157/49
f 79/169/50 85/163/50 87/164/50 77/170/50
f 81/158/51 82/157/51 88/160/51 87/159/51
f 79/152/52 80/151/52 86/154/52 85/153/52
o Cube.002
v -1.760782 5.713845 0.025874
v -1.760782 29.815666 0.025874
v -1.760782 5.713845 -0.025874
v -1.760782 29.815666 -0.025874
v 1.760782 5.713845 0.025874
v 1.760782 29.815666 0.025874
v 1.760782 5.713845 -0.025874
v 1.760782 29.815666 -0.025874
v 0.023939 32.188732 0.025874
v 0.023939 32.188732 -0.025874
v 0.051658 32.188732 -0.025874
v 0.051658 32.188732 0.025874
v 0.000000 5.713845 -0.525874
v 0.000000 29.815666 -0.525874
v 0.000000 5.713845 0.525874
v 0.000000 29.815666 0.525874
v 0.000000 32.188732 -0.025874
v 0.000000 32.188732 0.025874
vt 0.375000 0.118850
vt 0.625000 0.118850
vt 0.625000 0.250000
vt 0.375000 0.250000
vt 0.375000 0.375000
vt 0.625000 0.375000
vt 0.625000 0.500000
vt 0.375000 0.500000
vt 0.625000 0.750000
vt 0.375000 0.750000
vt 0.375000 0.875000
vt 0.625000 0.875000
vt 0.625000 1.000000
vt 0.375000 1.000000
vt 0.250000 0.500000
vt 0.250000 0.750000
vt 0.625000 0.250000
vt 0.625000 0.375000
vt 0.750000 0.500000
vt 0.875000 0.500000
vt 0.875000 0.750000
vt 0.750000 0.750000
vt 0.625000 0.500000
vt 0.625000 0.750000
vt 0.625000 0.000000
vt 0.625000 0.875000
vt 0.625000 1.000000
vt 0.125000 0.500000
vt 0.125000 0.631150
vn -1.0000 0.0000 0.0000
vn 0.2732 0.0000 -0.9620
vn 1.0000 0.0000 0.0000
vn -0.2732 0.0000 0.9620
vn 0.0000 -1.0000 0.0000
vn -0.2710 0.2011 -0.9413
vn 0.8115 0.5844 0.0000
vn -0.7992 0.6011 0.0000
vn 0.2609 0.1936 0.9458
vn -0.2710 0.2011 0.9413
vn 0.0000 1.0000 0.0000
vn 0.2609 0.1936 -0.9458
vn 0.2732 0.0000 0.9620
vn -0.2732 0.0000 -0.9620
usemtl Material.002
s off
f 89/171/53 90/172/53 92/173/53 91/174/53
f 101/175/54 102/176/54 96/177/54 95/178/54
f 95/178/55 96/177/55 94/179/55 93/180/55
f 103/181/56 104/182/56 90/183/56 89/184/56
f 101/185/57 95/178/57 93/180/57 103/186/57
f 102/176/58 92/173/58 98/187/58 105/188/58
f 105/189/57 98/190/57 97/191/57 106/192/57
f 94/179/59 96/177/59 99/193/59 100/194/59
f 92/173/60 90/172/60 97/195/60 98/187/60
f 104/182/61 94/179/61 100/194/61 106/196/61
f 90/183/62 104/182/62 106/196/62 97/197/62
f 99/193/63 105/189/63 106/192/63 100/194/63
f 96/177/64 102/176/64 105/188/64 99/193/64
f 91/198/57 101/185/57 103/186/57 89/199/57
f 93/180/65 94/179/65 104/182/65 103/181/65
f 91/174/66 92/173/66 102/176/66 101/175/66
